<?xml version="1.0" encoding="utf-8"?>
<!-- Generator: Adobe Illustrator 24.0.2, SVG Export Plug-In . SVG Version: 6.00 Build 0)  -->
<svg version="1.1" id="Layer_1" xmlns="http://www.w3.org/2000/svg" xmlns:xlink="http://www.w3.org/1999/xlink" x="0px" y="0px"
	 viewBox="0 0 64 64" style="enable-background:new 0 0 64 64;" xml:space="preserve">
<style type="text/css">
	.st0{fill:none;stroke:#606060;stroke-width:2;stroke-linecap:round;stroke-linejoin:round;stroke-miterlimit:10;}
</style>
<g>
	<g>
		<path class="st0" d="M18.3,50.3l-0.5,5l-0.3,3.2c-0.1,1.2-0.5,2.3-1.4,3.2c-1.9,1.9-4.9,1.9-6.8,0s-1.9-5,0-6.8
			c-1.9,1.9-4.9,1.9-6.8,0c-1.9-1.9-1.9-5,0-6.8c0.9-0.9,2-1.3,3.2-1.4l4.9-0.5l3.6-0.4l4.8-0.5"/>
	</g>
	<path class="st0" d="M29.6,1.9c0.4,0,0.8,0,1.3,0"/>
	<path class="st0" d="M4,13.5c0.6-0.7,1.2-1.4,1.9-2c5.4-5.4,12.3-8.6,19.3-9.4"/>
	<path class="st0" d="M34.5,2.3c6.6,1.1,12.9,4.2,18,9.2c12.9,12.9,12.9,33.8,0,46.7c-0.7,0.7-1.3,1.3-2,1.9"/>
	<line class="st0" x1="40" y1="24" x2="19" y2="45"/>
	<line class="st0" x1="43.7" y1="20.3" x2="42.8" y2="21.2"/>
	<line class="st0" x1="61.8" y1="2.2" x2="47" y2="17"/>
	<polyline class="st0" points="52.4,1 63,1 63,11.6 	"/>
	<line class="st0" x1="4" y1="13.5" x2="50.5" y2="60"/>
</g>
</svg>
