<?xml version="1.0" encoding="utf-8"?>
<!-- Generator: Adobe Illustrator 24.0.2, SVG Export Plug-In . SVG Version: 6.00 Build 0)  -->
<svg version="1.1" id="Слой_1" xmlns="http://www.w3.org/2000/svg" xmlns:xlink="http://www.w3.org/1999/xlink" x="0px" y="0px"
	 viewBox="0 0 32 32" style="enable-background:new 0 0 32 32;" xml:space="preserve">
<style type="text/css">
	.st0{fill:#FFFFFF;}
	.st1{fill:none;}
</style>
<title></title>
<g id="Layer_2">
	<path class="st0" d="M16,29C8.8,29,3,23.2,3,16S8.8,3,16,3s13,5.8,13,13S23.2,29,16,29z M16,5C9.9,5,5,9.9,5,16s4.9,11,11,11
		s11-4.9,11-11S22.1,5,16,5z"/>
	<path class="st0" d="M21.5,22.5c-0.3,0-0.5-0.1-0.7-0.3l-5.5-5.5C15.1,16.5,15,16.3,15,16V8c0-0.6,0.4-1,1-1c0.6,0,1,0.4,1,1v7.6
		l5.2,5.2c0.4,0.4,0.4,1,0,1.4c0,0,0,0,0,0C22,22.4,21.8,22.5,21.5,22.5z"/>
</g>
<g id="frame">
	<rect class="st1" width="32" height="32"/>
</g>
</svg>
