<?xml version="1.0" encoding="utf-8"?>
<!-- Generator: Adobe Illustrator 24.0.2, SVG Export Plug-In . SVG Version: 6.00 Build 0)  -->
<svg version="1.1" id="Слой_1" xmlns="http://www.w3.org/2000/svg" xmlns:xlink="http://www.w3.org/1999/xlink" x="0px" y="0px"
	 viewBox="0 0 512 512" style="enable-background:new 0 0 512 512;" xml:space="preserve">
<style type="text/css">
	.st0{fill:#666666;}
</style>
<path class="st0" d="M368,168h-96v-64h176c13.2,0,24-10.8,24-24V16h-32v56H264c-13.2,0-24,10.8-24,24v72h-96
	c-70.7,0.1-127.9,57.3-128,128v101c0.1,50.3,40.8,91,91,91h1.8c27,0,52.7-12,70-32.8l52.7-63.2h48.6l52.7,68.5
	c30.7,39.9,87.8,47.3,127.7,16.6c22.4-17.2,35.5-43.9,35.5-72.2V296C495.9,225.3,438.7,168.1,368,168z M464,405
	c0,32.6-26.4,59-59,59c-18.3,0-35.6-8.5-46.8-23l-62.3-81h-79.4l-62.3,74.8C143,448.2,126.4,456,108.8,456H107
	c-32.6,0-59-26.5-59-59V296c0.1-53,43-95.9,96-96h224c53,0.1,95.9,43,96,96V405z"/>
<rect x="360" y="248" class="st0" width="32" height="32"/>
<rect x="360" y="328" class="st0" width="32" height="32"/>
<rect x="320" y="288" class="st0" width="32" height="32"/>
<rect x="400" y="288" class="st0" width="32" height="32"/>
<polygon class="st0" points="152,248 120,248 120,288 80,288 80,320 120,320 120,360 152,360 152,320 192,320 192,288 152,288 "/>
</svg>
