<svg xmlns="http://www.w3.org/2000/svg" viewBox="0 0 235 235"><defs><style>.cls-1{fill:#fff;stroke:#424242;stroke-linecap:round;stroke-linejoin:round;stroke-width:2px;}.cls-2{font-size:18.17px;font-family:OpenSans-Semibold, Open Sans;font-weight:600;letter-spacing:0.05em;}.cls-2,.cls-3{fill:#424242;}.cls-3{font-size:38px;font-family:Antonio-Bold, Antonio Bold;font-weight:700;letter-spacing:0.05em;}.cls-4{letter-spacing:0.02em;}.cls-5{letter-spacing:0.01em;}.cls-6{letter-spacing:0.05em;}</style></defs><title>Ресурс 2</title><g id="Слой_2" data-name="Слой 2"><g id="OBJECTS"><rect class="cls-1" x="35.12" y="35.12" width="164.76" height="164.76" transform="translate(235 0) rotate(90)"/><rect class="cls-1" x="35.12" y="35.12" width="164.76" height="164.76" transform="translate(283.67 117.5) rotate(135)"/><rect class="cls-1" x="41.75" y="41.75" width="151.49" height="151.49" transform="translate(283.67 117.5) rotate(135)"/><circle class="cls-1" cx="49.74" cy="49.67" r="7.74" transform="translate(-15.22 22.81) rotate(-22.5)"/><circle class="cls-1" cx="185.26" cy="49.67" r="7.74" transform="translate(19.14 145.55) rotate(-45)"/><circle class="cls-1" cx="49.74" cy="184.6" r="7.74" transform="translate(-66.86 33.08) rotate(-22.5)"/><circle class="cls-1" cx="185.26" cy="184.6" r="7.74" transform="translate(-76.27 185.07) rotate(-45)"/><text class="cls-2" transform="translate(89.07 58.49)">HAND</text><text class="cls-2" transform="translate(89.55 186.95)">MADE</text><line class="cls-1" x1="60.42" y1="68.31" x2="174.58" y2="68.31"/><line class="cls-1" x1="60.42" y1="166.69" x2="174.58" y2="166.69"/><text class="cls-3" transform="translate(23.85 134.37)">E<tspan class="cls-4" x="20.6" y="0">X</tspan><tspan x="43.09" y="0">C</tspan><tspan class="cls-5" x="67.03" y="0">L</tspan><tspan class="cls-6" x="85.5" y="0">USIVE</tspan></text><polygon class="cls-1" points="70.48 77.44 72.64 81.8 77.46 82.5 73.97 85.91 74.79 90.71 70.48 88.44 66.17 90.71 66.99 85.91 63.5 82.5 68.32 81.8 70.48 77.44"/><polygon class="cls-1" points="93.99 77.44 96.15 81.8 100.97 82.5 97.48 85.91 98.3 90.71 93.99 88.44 89.68 90.71 90.5 85.91 87.01 82.5 91.83 81.8 93.99 77.44"/><polygon class="cls-1" points="117.5 77.44 119.66 81.8 124.48 82.5 120.99 85.91 121.81 90.71 117.5 88.44 113.19 90.71 114.01 85.91 110.52 82.5 115.34 81.8 117.5 77.44"/><polygon class="cls-1" points="141.01 77.44 143.17 81.8 147.99 82.5 144.5 85.91 145.32 90.71 141.01 88.44 136.7 90.71 137.52 85.91 134.03 82.5 138.85 81.8 141.01 77.44"/><polygon class="cls-1" points="164.52 77.44 166.68 81.8 171.5 82.5 168.01 85.91 168.83 90.71 164.52 88.44 160.21 90.71 161.03 85.91 157.54 82.5 162.37 81.8 164.52 77.44"/><polygon class="cls-1" points="70.48 144.29 72.64 148.66 77.46 149.36 73.97 152.76 74.79 157.56 70.48 155.3 66.17 157.56 66.99 152.76 63.5 149.36 68.32 148.66 70.48 144.29"/><polygon class="cls-1" points="93.99 144.29 96.15 148.66 100.97 149.36 97.48 152.76 98.3 157.56 93.99 155.3 89.68 157.56 90.5 152.76 87.01 149.36 91.83 148.66 93.99 144.29"/><polygon class="cls-1" points="117.5 144.29 119.66 148.66 124.48 149.36 120.99 152.76 121.81 157.56 117.5 155.3 113.19 157.56 114.01 152.76 110.52 149.36 115.34 148.66 117.5 144.29"/><polygon class="cls-1" points="141.01 144.29 143.17 148.66 147.99 149.36 144.5 152.76 145.32 157.56 141.01 155.3 136.7 157.56 137.52 152.76 134.03 149.36 138.85 148.66 141.01 144.29"/><polygon class="cls-1" points="164.52 144.29 166.68 148.66 171.5 149.36 168.01 152.76 168.83 157.56 164.52 155.3 160.21 157.56 161.03 152.76 157.54 149.36 162.37 148.66 164.52 144.29"/></g></g></svg>