<?xml version="1.0" encoding="utf-8"?>
<!-- Generator: Adobe Illustrator 24.0.2, SVG Export Plug-In . SVG Version: 6.00 Build 0)  -->
<svg version="1.1" id="Capa_1" xmlns="http://www.w3.org/2000/svg" xmlns:xlink="http://www.w3.org/1999/xlink" x="0px" y="0px"
	 viewBox="0 0 612 612" style="enable-background:new 0 0 612 612;" xml:space="preserve">
<style type="text/css">
	.st0{fill:#FFFFFF;}
</style>
<g>
	<g id="_x31__39_">
		<g>
			<path class="st0" d="M459,18.1c-63.7,0-112,37.4-153,76.5c-39.1-41.5-89.3-76.5-153-76.5C63.2,18.1,0,95.3,0,179.4
				c0,45.2,18.5,77.7,38.7,108.2l237.8,285.1c26.7,28.2,31.7,28.2,58.4,0l238.3-285.1c23.8-30.5,38.7-63.1,38.7-108.2
				C612,95.3,548.8,18.1,459,18.1z M535.5,279.7L306,553.6l-229.5-275c-27.4-38.2-38.3-63.9-38.3-99.2c0-65.8,47-124.9,114.8-125.5
				c55.8-0.5,119,56.5,153,99.4c33.1-41.4,97.2-99.4,153-99.4c66,0,114.8,59.7,114.8,125.5C573.8,214.7,565.2,242.4,535.5,279.7z"/>
		</g>
	</g>
</g>
</svg>
