<?xml version="1.0" encoding="utf-8"?>
<!-- Generator: Adobe Illustrator 24.0.2, SVG Export Plug-In . SVG Version: 6.00 Build 0)  -->
<svg version="1.1" id="Layer_2" xmlns="http://www.w3.org/2000/svg" xmlns:xlink="http://www.w3.org/1999/xlink" x="0px" y="0px"
	 viewBox="0 0 100 100" style="enable-background:new 0 0 100 100;" xml:space="preserve">
<style type="text/css">
	.st0{fill:#666666;}
</style>
<path class="st0" d="M93.1,55.8L56.7,19.4v-3.7c0-8.1-5.6-14.6-12.4-14.6c-6.8,0-12.4,6.6-12.4,14.6v16.6L6.8,57.4
	c-1.4,1.4-1.4,3.6,0,5l35.5,35.5c0.7,0.7,1.6,1,2.5,1s1.8-0.3,2.5-1l33.5-33.5l10.7-2.5c1.3-0.3,2.3-1.4,2.6-2.7
	C94.4,57.9,94,56.6,93.1,55.8z M36.9,15.7c0-5.2,3.4-9.6,7.4-9.6c3.8,0,7.1,4,7.4,8.9c-1.2-0.3-2.5-0.1-3.4,0.9L36.9,27.3V15.7z
	 M78.9,59.6l-0.3,0.1c-0.3,0.2-0.8,0.4-1.2,0.8L44.7,93.2L11.3,59.8l39.3-39.3l1,1v10.2c0,1.4,1.1,2.5,2.5,2.5l0,0
	c1.4,0,2.5-1.1,2.5-2.5v-5.2l6,6L50.8,44.3c-1,1-1,2.6,0,3.5l0,0c1,1,2.6,1,3.5,0L66.1,36l3.5,3.5L62.1,47c-1,1-1,2.6,0,3.5l0,0
	c1,1,2.6,1,3.5,0l7.5-7.5l2.8,2.8L61.3,60.4c-1,1-1,2.6,0,3.5l0,0c1,1,2.6,1,3.5,0l14.6-14.6l8,8L78.9,59.6z"/>
</svg>
