<?xml version="1.0" encoding="utf-8"?>
<!-- Generator: Adobe Illustrator 24.0.2, SVG Export Plug-In . SVG Version: 6.00 Build 0)  -->
<svg version="1.1" id="Layer_1" xmlns:sketch="http://www.bohemiancoding.com/sketch/ns"
	 xmlns="http://www.w3.org/2000/svg" xmlns:xlink="http://www.w3.org/1999/xlink" x="0px" y="0px" viewBox="0 0 64 51"
	 style="enable-background:new 0 0 64 51;" xml:space="preserve">
<style type="text/css">
	.st0{fill:none;stroke:#FFFFFF;stroke-width:3;}
</style>
<title>Briefcase</title>
<desc>Created with Sketch.</desc>
<g id="Page-1" sketch:type="MSPage">
	<g id="Briefcase" transform="translate(1.000000, 1.000000)" sketch:type="MSLayerGroup">
		<path id="Shape_1_" sketch:type="MSShapeGroup" class="st0" d="M62,22.4v24.5c0,1.2-1,2.1-2.1,2.1H2.2c-1.2,0-2.1-1-2.1-2.1V22.4"
			/>
		<path id="Shape_2_" sketch:type="MSShapeGroup" class="st0" d="M21,7V2.3C21,1.1,21.8,0,22.8,0h14.4c1,0,1.8,1,1.8,2.3V7"/>
		<path id="Shape_3_" sketch:type="MSShapeGroup" class="st0" d="M35,24v6c0,1.1-1,2-2.2,2h-5.6C26,32,25,31.1,25,30v-6"/>
		<path id="Shape_4_" sketch:type="MSShapeGroup" class="st0" d="M25,27h10"/>
		<path id="Shape" sketch:type="MSShapeGroup" class="st0" d="M62,20.9c0,1.2-1,2.1-2.1,2.1H2.2c-1.2,0-2.1-1-2.1-2.1V8.1
			c0-1.2,1-2.1,2.1-2.1h57.7C61.1,6,62,7,62,8.1V20.9L62,20.9z"/>
	</g>
</g>
</svg>
