<?xml version="1.0" encoding="utf-8"?>
<!-- Generator: Adobe Illustrator 24.0.2, SVG Export Plug-In . SVG Version: 6.00 Build 0)  -->
<svg version="1.1" id="Capa_1" xmlns="http://www.w3.org/2000/svg" xmlns:xlink="http://www.w3.org/1999/xlink" x="0px" y="0px"
	 viewBox="0 0 33 33" style="enable-background:new 0 0 33 33;" xml:space="preserve">
<style type="text/css">
	.st0{fill:#666666;}
</style>
<g>
	<path class="st0" d="M16.5,30.5c-0.1,0-0.3-0.1-0.4-0.2l-16-19c-0.2-0.2-0.2-0.4,0-0.6l6-8c0.1-0.1,0.2-0.2,0.4-0.2h20
		c0.2,0,0.3,0.1,0.4,0.2l6,8c0.1,0.2,0.1,0.4,0,0.6l-16,19C16.8,30.4,16.6,30.5,16.5,30.5z M1.1,11l15.4,18.2L31.9,11l-5.6-7.5H6.8
		L1.1,11z"/>
	<path class="st0" d="M32.5,11.5h-32C0.2,11.5,0,11.3,0,11s0.2-0.5,0.5-0.5h32c0.3,0,0.5,0.2,0.5,0.5S32.8,11.5,32.5,11.5z"/>
	<path class="st0" d="M16.5,30.5c0,0-0.1,0-0.1,0c-0.3-0.1-0.4-0.4-0.3-0.6l6-19c0.1-0.3,0.4-0.4,0.6-0.3c0.3,0.1,0.4,0.4,0.3,0.6
		l-6,19C16.9,30.4,16.7,30.5,16.5,30.5z"/>
	<path class="st0" d="M16.5,30.5c-0.2,0-0.4-0.1-0.5-0.4l-6-19c-0.1-0.3,0.1-0.5,0.3-0.6c0.3-0.1,0.5,0.1,0.6,0.3l6,19
		c0.1,0.3-0.1,0.5-0.3,0.6C16.6,30.5,16.5,30.5,16.5,30.5z"/>
	<path class="st0" d="M10.5,11.5c-0.2,0-0.4-0.1-0.4-0.3l-4-8C5.9,3,6,2.7,6.3,2.6c0.2-0.1,0.5,0,0.7,0.2l4,8c0.1,0.2,0,0.5-0.2,0.7
		C10.7,11.5,10.6,11.5,10.5,11.5z"/>
	<path class="st0" d="M10.5,11.5c-0.1,0-0.2,0-0.3-0.1c-0.2-0.2-0.3-0.5-0.1-0.7l6-8c0.2-0.2,0.5-0.3,0.7-0.1
		c0.2,0.2,0.3,0.5,0.1,0.7l-6,8C10.8,11.4,10.7,11.5,10.5,11.5z"/>
	<path class="st0" d="M22.5,11.5c-0.2,0-0.3-0.1-0.4-0.2l-6-8c-0.2-0.2-0.1-0.5,0.1-0.7c0.2-0.2,0.5-0.1,0.7,0.1l6,8
		c0.2,0.2,0.1,0.5-0.1,0.7C22.7,11.5,22.6,11.5,22.5,11.5z"/>
	<path class="st0" d="M22.5,11.5c-0.1,0-0.2,0-0.2-0.1c-0.2-0.1-0.3-0.4-0.2-0.7l4-8c0.1-0.2,0.4-0.3,0.7-0.2
		C27,2.7,27.1,3,26.9,3.2l-4,8C22.9,11.4,22.7,11.5,22.5,11.5z"/>
</g>
</svg>
