<svg xmlns="http://www.w3.org/2000/svg" viewBox="0 0 196.83 226.97"><defs><style>.cls-1,.cls-5{fill:#fff;stroke:#424242;stroke-linecap:round;stroke-linejoin:round;}.cls-1{stroke-width:2px;}.cls-2{font-size:36.07px;font-family:OpenSans-Bold, Open Sans;font-weight:700;letter-spacing:0.05em;}.cls-2,.cls-3,.cls-4{fill:#424242;}.cls-3{font-size:40px;font-family:OpenSans-Extrabold, Open Sans;font-weight:800;letter-spacing:0.05em;}.cls-4{font-size:18.17px;font-family:OpenSans-Semibold, Open Sans;font-weight:600;letter-spacing:0.05em;}.cls-5{stroke-width:3px;stroke-dasharray:0 7;}</style></defs><title>Ресурс 4</title><g id="Слой_2" data-name="Слой 2"><g id="OBJECTS"><polygon class="cls-1" points="98.42 225.97 1 169.73 1 57.24 98.42 1 195.83 57.24 195.83 169.73 98.42 225.97"/><polygon class="cls-1" points="98.42 218.56 7.42 166.02 7.42 60.95 98.42 8.41 189.41 60.95 189.41 166.02 98.42 218.56"/><text class="cls-2" transform="translate(41.92 95.08)">MADE</text><text class="cls-3" transform="translate(41.98 159.08)">LOVE</text><text class="cls-4" transform="translate(73.26 119.99)">WITH</text><path class="cls-1" d="M115.12,33.93c-1.45-5.73-8-6.73-12.27-4a12.1,12.1,0,0,0-4.48,5.5A16,16,0,0,0,93,29.63c-4-2.32-9.84-1.23-11.24,4.3-2.5,9.89,16.66,21.91,16.66,21.91l0,0,0,0S117.62,43.82,115.12,33.93Z"/><path class="cls-1" d="M81.71,193c1.45,5.73,8,6.73,12.28,4a12.12,12.12,0,0,0,4.47-5.5,16,16,0,0,0,5.42,5.8c4,2.32,9.84,1.23,11.24-4.3,2.5-9.89-16.66-21.91-16.66-21.91l0,0,0,0S79.21,183.15,81.71,193Z"/><line class="cls-5" x1="15.15" y1="113.49" x2="66.35" y2="113.49"/><line class="cls-5" x1="130.48" y1="113.49" x2="181.68" y2="113.49"/></g></g></svg>