<svg xmlns="http://www.w3.org/2000/svg" viewBox="0 0 216.25 216.25"><defs><style>.cls-1,.cls-2{fill:#fff;}.cls-1,.cls-2,.cls-3,.cls-5{stroke:#424242;stroke-linecap:round;stroke-linejoin:round;stroke-width:2px;}.cls-2,.cls-3{stroke-dasharray:6;}.cls-3,.cls-5{fill:none;}.cls-4{font-size:31.09px;fill:#424242;font-family:OpenSans-Bold, Open Sans;font-weight:700;}</style></defs><title>Ресурс 1</title><g id="Слой_2" data-name="Слой 2"><g id="OBJECTS"><circle class="cls-1" cx="108.12" cy="108.12" r="107.12"/><circle class="cls-2" cx="108.12" cy="108.12" r="101"/><circle class="cls-3" cx="108.12" cy="108.12" r="63.5"/><circle class="cls-1" cx="108.12" cy="108.12" r="35"/><circle class="cls-1" cx="108.12" cy="108.12" r="29.62"/><path class="cls-1" d="M102.89,97.93a5,5,0,1,1-5-5A5,5,0,0,1,102.89,97.93Z"/><path class="cls-1" d="M123.27,97.93a5,5,0,1,1-5-5A5,5,0,0,1,123.27,97.93Z"/><path class="cls-1" d="M102.89,118.31a5,5,0,1,1-5-5A5,5,0,0,1,102.89,118.31Z"/><path class="cls-1" d="M123.27,118.31a5,5,0,1,1-5-5A5,5,0,0,1,123.27,118.31Z"/><text class="cls-4" transform="translate(37.41 92.9) rotate(-68.37)">H</text><text class="cls-4" transform="matrix(0.64, -0.77, 0.77, 0.64, 46.35, 70.86)">A</text><text class="cls-4" transform="translate(59.87 54.1) rotate(-31.78)">N</text><text class="cls-4" transform="translate(81.37 40.98) rotate(-12.51)">D</text><text class="cls-4" transform="translate(104.3 36.73) rotate(0.93)">-</text><text class="cls-4" transform="translate(114.69 35.59) rotate(16.77)">M</text><text class="cls-4" transform="matrix(0.8, 0.6, -0.6, 0.8, 142.35, 44.62)">A</text><text class="cls-4" transform="matrix(0.58, 0.82, -0.82, 0.58, 159.64, 57.47)">D</text><text class="cls-4" transform="matrix(0.33, 0.94, -0.94, 0.33, 172.69, 76.55)">E</text><text class="cls-4" transform="matrix(0.41, 0.91, -0.91, 0.41, 17.91, 135.52)">H</text><text class="cls-4" transform="matrix(0.66, 0.75, -0.75, 0.66, 31, 162.07)">A</text><text class="cls-4" transform="matrix(0.86, 0.51, -0.51, 0.86, 49.69, 182.2)">N</text><text class="cls-4" transform="translate(77.31 197.18) rotate(12.01)">D</text><text class="cls-4" transform="matrix(1, -0.02, 0.02, 1, 104.71, 201.69)">-</text><text class="cls-4" transform="matrix(0.96, -0.28, 0.28, 0.96, 120.07, 202.02)">M</text><text class="cls-4" transform="translate(153.76 190.45) rotate(-35.59)">A</text><text class="cls-4" transform="translate(175.44 174.02) rotate(-52.59)">D</text><text class="cls-4" transform="matrix(0.37, -0.93, 0.93, 0.37, 191.8, 150.79)">E</text><circle class="cls-5" cx="108.12" cy="108.12" r="57.08" transform="translate(-44.79 108.12) rotate(-45)"/></g></g></svg>