<svg xmlns="http://www.w3.org/2000/svg" viewBox="0 0 247.33 204.76"><defs><style>.cls-1,.cls-2{fill:#fff;}.cls-1,.cls-3{stroke:#424242;stroke-linecap:round;stroke-linejoin:round;stroke-width:2px;}.cls-3{fill:none;stroke-dasharray:6.01 6.01;}.cls-4{font-size:40.49px;fill:#424242;font-family:Antonio-Bold, Antonio Bold;font-weight:700;letter-spacing:0.02em;}.cls-5{letter-spacing:0.05em;}</style></defs><title>Ресурс 3</title><g id="Слой_2" data-name="Слой 2"><g id="OBJECTS"><circle class="cls-1" cx="123.67" cy="102.38" r="101.38"/><circle class="cls-2" cx="123.67" cy="102.38" r="95.7" transform="translate(-36.17 117.43) rotate(-45)"/><circle class="cls-3" cx="123.67" cy="102.38" r="95.7"/><path class="cls-1" d="M115.28,41.38c9.37,11,2.9,26.9,2.9,26.9s-16.74,3.89-26.11-7.08-7.81-32.65-7.81-32.65S105.91,30.41,115.28,41.38Z"/><line class="cls-1" x1="84.26" y1="28.55" x2="118.18" y2="68.28"/><line class="cls-1" x1="118.86" y1="48.41" x2="113.48" y2="62.77"/><line class="cls-1" x1="114.25" y1="40.47" x2="108.13" y2="56.51"/><line class="cls-1" x1="107.92" y1="36.01" x2="102.79" y2="50.25"/><line class="cls-1" x1="101.81" y1="32.67" x2="97.44" y2="43.99"/><line class="cls-1" x1="94.75" y1="30.85" x2="92.1" y2="37.73"/><line class="cls-1" x1="98.45" y1="65.84" x2="113.48" y2="62.77"/><line class="cls-1" x1="91.33" y1="60.03" x2="108.13" y2="56.51"/><line class="cls-1" x1="87.92" y1="53.09" x2="102.79" y2="50.25"/><line class="cls-1" x1="85.58" y1="46.53" x2="97.44" y2="43.99"/><line class="cls-1" x1="84.89" y1="39.27" x2="92.1" y2="37.73"/><path class="cls-1" d="M132.05,41.38c-9.36,11-2.9,26.9-2.9,26.9s16.74,3.89,26.11-7.08,7.81-32.65,7.81-32.65S141.42,30.41,132.05,41.38Z"/><line class="cls-1" x1="163.07" y1="28.55" x2="129.15" y2="68.28"/><line class="cls-1" x1="128.47" y1="48.41" x2="133.85" y2="62.77"/><line class="cls-1" x1="133.08" y1="40.47" x2="139.2" y2="56.51"/><line class="cls-1" x1="139.41" y1="36.01" x2="144.54" y2="50.25"/><line class="cls-1" x1="145.52" y1="32.67" x2="149.89" y2="43.99"/><line class="cls-1" x1="152.58" y1="30.85" x2="155.23" y2="37.73"/><line class="cls-1" x1="148.88" y1="65.84" x2="133.85" y2="62.77"/><line class="cls-1" x1="156" y1="60.03" x2="139.2" y2="56.51"/><line class="cls-1" x1="159.41" y1="53.09" x2="144.54" y2="50.25"/><line class="cls-1" x1="161.75" y1="46.53" x2="149.89" y2="43.99"/><line class="cls-1" x1="162.44" y1="39.27" x2="155.23" y2="37.73"/><path class="cls-1" d="M132.05,163.38c-9.36-11-2.9-26.9-2.9-26.9s16.74-3.89,26.11,7.08,7.81,32.65,7.81,32.65S141.42,174.35,132.05,163.38Z"/><line class="cls-1" x1="163.07" y1="176.21" x2="129.15" y2="136.48"/><line class="cls-1" x1="128.47" y1="156.35" x2="133.85" y2="141.99"/><line class="cls-1" x1="133.08" y1="164.29" x2="139.2" y2="148.25"/><line class="cls-1" x1="139.41" y1="168.75" x2="144.54" y2="154.51"/><line class="cls-1" x1="145.52" y1="172.08" x2="149.89" y2="160.77"/><line class="cls-1" x1="152.58" y1="173.91" x2="155.23" y2="167.03"/><line class="cls-1" x1="148.88" y1="138.92" x2="133.85" y2="141.99"/><line class="cls-1" x1="156" y1="144.72" x2="139.2" y2="148.25"/><line class="cls-1" x1="159.41" y1="151.67" x2="144.54" y2="154.51"/><line class="cls-1" x1="161.75" y1="158.23" x2="149.89" y2="160.77"/><line class="cls-1" x1="162.44" y1="165.49" x2="155.23" y2="167.03"/><path class="cls-1" d="M115.28,163.38c9.37-11,2.9-26.9,2.9-26.9s-16.74-3.89-26.11,7.08-7.81,32.65-7.81,32.65S105.91,174.35,115.28,163.38Z"/><line class="cls-1" x1="84.26" y1="176.21" x2="118.18" y2="136.48"/><line class="cls-1" x1="118.86" y1="156.35" x2="113.48" y2="141.99"/><line class="cls-1" x1="114.25" y1="164.29" x2="108.13" y2="148.25"/><line class="cls-1" x1="107.92" y1="168.75" x2="102.79" y2="154.51"/><line class="cls-1" x1="101.81" y1="172.08" x2="97.44" y2="160.77"/><line class="cls-1" x1="94.75" y1="173.91" x2="92.1" y2="167.03"/><line class="cls-1" x1="98.45" y1="138.92" x2="113.48" y2="141.99"/><line class="cls-1" x1="91.33" y1="144.72" x2="108.13" y2="148.25"/><line class="cls-1" x1="87.92" y1="151.67" x2="102.79" y2="154.51"/><line class="cls-1" x1="85.58" y1="158.23" x2="97.44" y2="160.77"/><line class="cls-1" x1="84.89" y1="165.49" x2="92.1" y2="167.03"/><polygon class="cls-1" points="246.33 120.28 1 120.28 7.77 102.38 1 84.48 246.33 84.48 239.56 102.38 246.33 120.28"/><rect class="cls-1" x="16.49" y="75.25" width="214.36" height="54.25"/><text class="cls-4" transform="translate(16.45 120.06)">A<tspan class="cls-5" x="25.67" y="0">UTHENTIC</tspan></text></g></g></svg>