<?xml version="1.0" encoding="utf-8"?>
<!-- Generator: Adobe Illustrator 24.0.2, SVG Export Plug-In . SVG Version: 6.00 Build 0)  -->
<svg version="1.1" id="Слой_1" xmlns="http://www.w3.org/2000/svg" xmlns:xlink="http://www.w3.org/1999/xlink" x="0px" y="0px"
	 viewBox="0 0 24 24" style="enable-background:new 0 0 24 24;" xml:space="preserve">
<style type="text/css">
	.st0{fill:#666666;}
</style>
<path class="st0" d="M15.5,6.4C15.5,6.4,15.5,6.4,15.5,6.4C14.9,7,14.9,8,15.5,8.6c0.5,0.5,1.4,0.6,2,0.1L18.2,8
	c-1.1-0.2-2-1-2.1-2.1L15.5,6.4L15.5,6.4z M14,7.8l-9.6,9.6c-0.6,0.6-0.6,1.5,0,2.1c0.6,0.6,1.5,0.6,2.1,0l9.6-9.6
	c-0.5-0.1-1-0.3-1.4-0.7C14.3,8.9,14.1,8.4,14,7.8L14,7.8z M18.4,9.2C18.3,9.2,18.3,9.2,18.4,9.2c-0.1,0.1-0.2,0.2-0.3,0.3L7.3,20.3
	c-1,1-2.6,1-3.5,0c-1-1-1-2.6,0-3.6l13-13c0,0,0,0,0.1-0.1C17.2,3.3,17.8,3,18.5,3C19.9,3,21,4.1,21,5.5c0,0.7-0.3,1.3-0.7,1.7
	c0,0,0,0-0.1,0.1L18.4,9.2L18.4,9.2z M17,16h0.5c0.3,0,0.5,0.2,0.5,0.5S17.8,17,17.5,17H17v0.6c0,0.3-0.2,0.5-0.5,0.5
	S16,17.8,16,17.6V17h-0.5c-0.3,0-0.5-0.2-0.5-0.5s0.2-0.5,0.5-0.5H16v-0.5c0-0.3,0.2-0.5,0.5-0.5s0.5,0.2,0.5,0.5V16z M10,4V3.5
	C10,3.2,10.2,3,10.5,3S11,3.2,11,3.5V4h0.5C11.8,4,12,4.2,12,4.5S11.8,5,11.5,5H11v0.5C11,5.8,10.8,6,10.5,6S10,5.8,10,5.5V5H9.5
	C9.2,5,9,4.8,9,4.5S9.2,4,9.5,4H10z M22,12h0.5c0.3,0,0.5,0.2,0.5,0.5S22.8,13,22.5,13H22v0.5c0,0.3-0.2,0.5-0.5,0.5
	S21,13.8,21,13.5V13h-0.5c-0.3,0-0.5-0.2-0.5-0.5s0.2-0.5,0.5-0.5H21v-0.5c0-0.3,0.2-0.5,0.5-0.5s0.5,0.2,0.5,0.5V12z M18.5,7
	C19.3,7,20,6.3,20,5.5S19.3,4,18.5,4S17,4.7,17,5.5S17.7,7,18.5,7z"/>
</svg>
