<?xml version="1.0" encoding="utf-8"?>
<!-- Generator: Adobe Illustrator 24.0.2, SVG Export Plug-In . SVG Version: 6.00 Build 0)  -->
<svg version="1.1" id="Layer_1" xmlns="http://www.w3.org/2000/svg" xmlns:xlink="http://www.w3.org/1999/xlink" x="0px" y="0px"
	 viewBox="0 0 91 91" style="enable-background:new 0 0 91 91;" xml:space="preserve">
<style type="text/css">
	.st0{fill:#666666;}
</style>
<g>
	<path class="st0" d="M67.7,17.6c-2.1,0-4.2,0.9-5.7,2.4L52,30l-19.1-7.1l-0.4-0.1c-0.8-0.2-1.8-0.5-2.8-0.5c-1.8,0-3.4,0.7-4.8,2.2
		c-3.3,3.3-3.3,6.6,0,9.9l12.5,10.2l-7,6.9l-7.4-1.9c-1.8-0.5-3.3-0.1-4.4,1.2l-0.1,0.1c-0.6,0.6-1.9,1.8-1.9,3.5
		c0,0.6,0.2,1.6,1.1,2.5l10.9,6.5L34.6,74l0.3,0.3c0.7,0.7,1.5,1.1,2.4,1.1c1.5,0,2.6-1,3.8-2.1c1.5-1.5,1.3-2.8,1-4.1l-1.8-7.7
		l6.9-6.9l10.2,12.5c1.6,1.6,3.3,2.5,5,2.5l0,0c2.4,0,4-1.6,4.9-2.5c3-3,2.3-5.7,1.8-7.6l-7.2-19.5l10-10.1
		c2.6-2.6,3.5-7.4,0.6-10.3C71.2,18.3,69.5,17.6,67.7,17.6z M27.2,32c-2.5-2.5-1.2-3.8,0.1-5.1c1.1-1.1,1.9-1.2,2.4-1.2
		c0.6,0,1.2,0.2,1.9,0.4l17.7,6.6l-9.6,9.6L27.2,32z M65.7,60.1l0,0.2c0.5,1.7,0.7,2.8-0.9,4.4c-0.6,0.6-1.5,1.5-2.5,1.5
		c-0.8,0-1.7-0.5-2.5-1.4L49.5,52.2l9.6-9.6L65.7,60.1z M69.4,27.4L58.6,38.3L45.9,51l0,0l-9.4,9.5l2.1,9.2l0.1,0.3
		c0.1,0.3,0.1,0.7,0.2,0.7c0,0,0,0.1-0.2,0.2c-0.7,0.7-1.1,1-1.3,1.1l-6.5-11l-11-6.5c0.1-0.2,0.3-0.4,0.8-1
		c0.2-0.2,0.3-0.3,0.3-0.3c0.3-0.3,0.5-0.3,1-0.1l9.3,2.3l9.3-9.3l0,0l12.9-12.9l10.8-10.8c0.9-0.9,2.1-1.4,3.3-1.4
		c0.6,0,1.6,0.1,2.3,0.9C71.4,23.4,70.9,26,69.4,27.4z"/>
</g>
</svg>
